<svg xmlns="http://www.w3.org/2000/svg" width="72.358" height="56.012" viewBox="828 572 72.358 56.012"><g data-name="discord-icon-svgrepo-com"><path d="M889.294 576.691A58.933 58.933 0 0 0 874.366 572a43.81 43.81 0 0 0-1.912 3.97c-5.566-.837-11.08-.837-16.544 0a42.44 42.44 0 0 0-1.935-3.97 58.736 58.736 0 0 0-14.94 4.703c-9.447 14.276-12.008 28.198-10.728 41.922 6.266 4.68 12.339 7.522 18.309 9.382a45.543 45.543 0 0 0 3.921-6.458 38.545 38.545 0 0 1-6.175-3.006 30.678 30.678 0 0 0 1.514-1.197c11.906 5.569 24.842 5.569 36.606 0a37.04 37.04 0 0 0 1.514 1.197 38.444 38.444 0 0 1-6.186 3.011 45.317 45.317 0 0 0 3.92 6.458c5.977-1.86 12.055-4.702 18.32-9.387 1.503-15.91-2.566-29.704-10.756-41.934Zm-37.135 33.494c-3.574 0-6.505-3.337-6.505-7.4 0-4.063 2.869-7.406 6.505-7.406 3.637 0 6.568 3.337 6.505 7.406.006 4.063-2.868 7.4-6.505 7.4Zm24.04 0c-3.574 0-6.505-3.337-6.505-7.4 0-4.063 2.868-7.406 6.505-7.406s6.568 3.337 6.505 7.406c0 4.063-2.868 7.4-6.505 7.4Z" fill="#fff" fill-rule="evenodd" data-name="Path 1"/></g>
</svg>