<svg xmlns="http://www.w3.org/2000/svg" width="50.964" height="50.964" viewBox="925.604 574.836 50.964 50.964"><g data-name="insta-svgrepo-com"><path d="M925.604 597.486c0-10.677 0-16.016 3.317-19.333 3.318-3.317 8.656-3.317 19.334-3.317h5.663c10.677 0 16.016 0 19.333 3.317s3.317 8.656 3.317 19.333v5.663c0 10.678 0 16.017-3.317 19.334s-8.656 3.317-19.333 3.317h-5.663c-10.678 0-16.016 0-19.334-3.317-3.317-3.317-3.317-8.656-3.317-19.334v-5.663Z" stroke-linejoin="round" stroke-linecap="round" stroke-width="8" stroke="#fff" fill="transparent" data-name="Path 2"/><path d="M959.844 587.404a4.109 4.451 0 1 1 0 .1z" fill="#fff" fill-rule="evenodd" data-name="Ellipse 1"/><path d="M942.724 600.416a8.56 8.56 0 1 1 0 .1z" stroke-linejoin="round" stroke-linecap="round" stroke-width="8" stroke="#fff" fill="transparent" data-name="Ellipse 2"/></g>
</svg>